<svg xmlns="http://www.w3.org/2000/svg" width="488.054" height="416.786" viewBox="0 0 488.054 416.786"><defs><style>.a,.h{fill:#6c63ff;}.a,.c,.e,.j,.m{opacity:0.1;}.b{fill:#65617d;}.d,.e{fill:#333f4f;}.f{fill:#3f3d56;}.g{fill:#fbbebe;}.i{fill:#512e4e;}.k{fill:#e1dee5;}.l{fill:#d9d6df;}.m,.r{fill:#fff;}.n{fill:#2d394a;stroke:#40868e;stroke-miterlimit:10;}.o{opacity:0.8;}.p{fill:#ffd037;}.q{fill:#9d9cb5;}.s{fill:#d3dae1;}</style></defs><g transform="translate(-0.005 0.003)"><path class="a" d="M247.117,49.612c14.658-13.047,37.667-15.722,58.608-14.683C371.508,38.2,430.894,69.956,482.26,105.882c18.567,13,36.9,27.018,48.973,44.928,24.589,36.457,17.283,86.961-16.886,116.99-11.622,10.222-25.718,18.066-40.181,25-25.723,12.35-53.479,22.261-82.675,25.091-20.821,2.007-41.9.376-62.592-2.429-57.83-7.853-114.591-25.2-162.164-54.864C145.869,247.581,126.2,231.4,117.6,210.351s-3.1-47.733,18.211-60.194c8.812-5.154,19.345-7.477,29.663-9.665,15.18-3.217,30.611-6.388,44.311-12.927,14.151-6.755,30.907-19.822,28.1-34.771C234.887,76.751,232.474,62.66,247.117,49.612Z" transform="translate(-113.71 -34.73)"/><path class="b" d="M499.58,271.725v59a26.406,26.406,0,0,0,26.426,26.421h35.228a23.721,23.721,0,0,0,23.736-23.751V271.725a42.7,42.7,0,1,0-85.39,0Z" transform="translate(-305.94 -131.528)"/><path class="c" d="M499.58,271.725v59a26.406,26.406,0,0,0,26.426,26.421h35.228a23.721,23.721,0,0,0,23.736-23.751V271.725a42.7,42.7,0,1,0-85.39,0Z" transform="translate(-305.94 -131.528)"/><path class="b" d="M502.11,274.245v57.248a25.623,25.623,0,0,0,25.638,25.633h34.184A23.013,23.013,0,0,0,584.961,334.1V274.245a41.425,41.425,0,1,0-82.851,0Z" transform="translate(-307.2 -133.416)"/><path class="c" d="M522.609,298.03v47.613a22.838,22.838,0,0,0,3.458,12.189,18.783,18.783,0,0,0,15.812,9.128h25.7a17,17,0,0,0,14.754-9.128,20.575,20.575,0,0,0,2.554-10.036V298.03c0-19.024-13.941-34.45-31.138-34.45a29.611,29.611,0,0,0-22.015,10.092A36.262,36.262,0,0,0,522.609,298.03Z" transform="translate(-317.411 -148.74)"/><circle class="d" cx="4.712" cy="4.712" r="4.712" transform="translate(286.573 308.132)"/><circle class="d" cx="4.712" cy="4.712" r="4.712" transform="translate(278.142 326.569)"/><circle class="d" cx="4.712" cy="4.712" r="4.712" transform="translate(194.072 329.906)"/><circle class="d" cx="4.712" cy="4.712" r="4.712" transform="translate(175.289 305.854)"/><rect class="d" width="5.901" height="36.869" transform="translate(233.169 229.627)"/><rect class="e" width="5.901" height="5.972" transform="translate(233.169 260.529)"/><rect class="d" width="8.18" height="40.909" transform="translate(240.209 302.838) rotate(180)"/><path class="d" d="M465.906,635.5l53.549-2.193v8.6H457.31A9.494,9.494,0,0,1,465.906,635.5Z" transform="translate(-284.882 -332.931)"/><path class="d" d="M634.7,635.5,581.15,633.31v8.6H643.3a9.495,9.495,0,0,0-8.6-6.408Z" transform="translate(-346.576 -332.931)"/><path class="d" d="M542.949,634.213,585.7,655.29a10.819,10.819,0,0,1,6.022,9.71v.637L541.79,643.868l-7.026-.5-41.521,26.511h0a10.829,10.829,0,0,1,4.471-10.282l37.049-26.235Z" transform="translate(-302.734 -332.956)"/><path class="e" d="M578.36,492.32v3.974q1.541.06,3.156.06c.928,0,1.842,0,2.74-.045v-3.99Z" transform="translate(-345.186 -262.693)"/><ellipse class="d" cx="21.774" cy="6.368" rx="21.774" ry="6.368" transform="translate(214.556 219.525)"/><path class="d" d="M541.64,478.558a2.589,2.589,0,0,0,.928,1.842,5.839,5.839,0,0,0,.693.572c3.242,2.318,11.04,3.954,20.148,3.954s16.972-1.651,20.2-3.99a4.9,4.9,0,0,0,.462-.361,2.74,2.74,0,0,0,1.119-2.007c0-3.513-9.745-6.368-21.779-6.368S541.64,475.04,541.64,478.558Z" transform="translate(-326.893 -252.67)"/><path class="e" d="M541.64,478.558a2.589,2.589,0,0,0,.928,1.842,5.839,5.839,0,0,0,.693.572c3.242,2.318,11.04,3.954,20.148,3.954s16.972-1.651,20.2-3.99a4.9,4.9,0,0,0,.462-.361,2.74,2.74,0,0,0,1.119-2.007c0-3.513-9.745-6.368-21.779-6.368S541.64,475.04,541.64,478.558Z" transform="translate(-326.893 -252.67)"/><path class="e" d="M541.27,478.558a2.584,2.584,0,0,0,.928,1.842c2.775-.687,4.692-1.265,4.692-1.265s19.19,1.074,36.809,1.44a2.735,2.735,0,0,0,1.119-2.007c0-3.513-9.745-6.368-21.779-6.368S541.27,475.04,541.27,478.558Z" transform="translate(-326.709 -252.67)"/><path class="e" d="M511.27,458.65a25.593,25.593,0,0,0,21.041,10.98H566.5a23.008,23.008,0,0,0,19.631-10.98Z" transform="translate(-311.763 -245.919)"/><path class="e" d="M541.64,478.558a2.589,2.589,0,0,0,.928,1.842,5.839,5.839,0,0,0,.693.572,328.012,328.012,0,0,0,40.347-.035,4.914,4.914,0,0,0,.462-.361,2.74,2.74,0,0,0,1.119-2.007c0-3.513-9.745-6.368-21.779-6.368S541.64,475.04,541.64,478.558Z" transform="translate(-326.893 -252.67)"/><path class="d" d="M496.9,472.222a329.934,329.934,0,0,0,82.69,0,5.786,5.786,0,0,0,5.811-5.786h0a5.786,5.786,0,0,0-5.786-5.786H496.9a5.786,5.786,0,0,0-5.786,5.786h0a5.786,5.786,0,0,0,5.786,5.786Z" transform="translate(-301.72 -246.916)"/><path class="b" d="M641.388,609.29s5.706,5.841,9.6,6.4,7.1,13.077,1.671,14.051-15.863-2.921-17.393-4.592-7.1-11.542-7.1-11.542Z" transform="translate(-370 -320.965)"/><path class="f" d="M565.745,479.431S579.661,506,579.937,509.62s12.1,18.949,12.1,18.949l-14.749,18.618s-1.947-4.732-5.284-6.4-2.645-5.425-2.645-5.425-3.478,0-5.982-4.175-5.565-8.345-5.565-10.142-18.367-20.73-18.367-20.73l1.39-20.173,3.759-6.4Z" transform="translate(-325.802 -253.437)"/><path class="c" d="M634.55,481.5l.12.105c1.686,1.505,20.61,18.276,20.61,18.673s6.815,11.687-1.671,21.428-27.967,25.738-27.967,25.738-8.486,6.122-9.6,7.377-17.945,0-7.929-11.411S627.59,519.2,627.59,519.2s-16.7-4.015-17.8-6.815,21.98-37.566,21.98-37.566Z" transform="translate(-358.43 -253.975)"/><path class="f" d="M617.544,481.5l.12.105c1.686,1.505,20.61,18.276,20.61,18.673s6.815,11.687-1.671,21.428-27.967,25.738-27.967,25.738-8.486,6.122-9.6,7.377-17.95,0-7.929-11.411S610.583,519.2,610.583,519.2s-16.7-4.015-17.81-6.815-23.084-36.874-23.084-36.874l45.079-.693Z" transform="translate(-340.867 -253.975)"/><path class="g" d="M569.12,321.389l1.666,15.165s17.112,6.82,17.534,6.679,11.406-10.036,9.6-16.56a58.115,58.115,0,0,1-1.505-11.542c-.181-3.719-.156-6.549-.156-6.549s-24.905-8.907-22.677-2.785c.808,2.223.442,4.888-.351,7.377A34.356,34.356,0,0,1,569.12,321.389Z" transform="translate(-340.583 -168.701)"/><path class="c" d="M577.29,313.144c.151.176.306.341.462.5a16.686,16.686,0,0,0,22.723,1.445c-.191-3.683-.156-6.549-.156-6.549s-24.905-8.907-22.677-2.785C578.449,307.99,578.083,310.655,577.29,313.144Z" transform="translate(-344.653 -168.681)"/><path class="g" d="M569.12,283.105a16.59,16.59,0,1,0,4.858-11.836A16.691,16.691,0,0,0,569.12,283.105Z" transform="translate(-340.582 -150.149)"/><path class="c" d="M589.3,355.953s6.524-14.493,8.767-14.493,5.711,74.967,5.711,74.967l-34.084.532L568.3,377.6l6.95-34.867S581.508,356.49,589.3,355.953Z" transform="translate(-340.174 -187.538)"/><path class="c" d="M586.128,358.173s6.524-14.493,8.767-14.493,5.711,74.962,5.711,74.962l-38.675.587,3.2-39.408,6.96-34.892S578.335,358.71,586.128,358.173Z" transform="translate(-337.001 -188.644)"/><path class="b" d="M586.128,357.063s6.524-14.493,8.767-14.493,5.711,74.987,5.711,74.987l-38.675.587,3.2-39.408,6.96-34.892S578.335,357.6,586.128,357.063Z" transform="translate(-337.001 -188.091)"/><path class="c" d="M622.79,332.209s1.169-1.711,2.84-1.154,2.921-.974,4.592.557,8.345,3.618,9.6,2.921,5.7,2.369,6.679,4.175,4.17,6.679,4.17,6.679,2.785,3.337,2.369,5.149.974,3.894,2.64,4.727,5.018,9.183,5.018,9.183-.908,11.171,2.845,13.113.974,10.438.974,10.438l-17.744-4.21-5.018-11.411s1.947,33.4,4.311,36.452,2.645,5.018,2.645,5.018-9.183,1.947-11.13,3.613-7.1-.417-7.1-.417l-5.018-44.381s-1.807-8.35-1.807-12.661S622.79,332.209,622.79,332.209Z" transform="translate(-367.32 -182.282)"/><path class="h" d="M623.9,332.209s1.169-1.711,2.84-1.154,2.921-.974,4.592.557,8.345,3.618,9.6,2.921,5.7,2.369,6.674,4.175,4.175,6.679,4.175,6.679,2.785,3.337,2.369,5.149.974,3.894,2.64,4.727,5.018,9.183,5.018,9.183-.9,11.166,2.86,13.113a3.971,3.971,0,0,1,1.736,2.926,8.741,8.741,0,0,1-8.947,10.267l-9.535-3.954L642.9,372.375s1.947,33.4,4.311,36.452,2.645,5.018,2.645,5.018-9.183,1.947-11.13,3.613-7.1-.417-7.1-.417l-5.018-44.381s-1.807-8.35-1.807-12.661S623.9,332.209,623.9,332.209Z" transform="translate(-367.873 -182.282)"/><path class="c" d="M677.658,381.66s-1.671,4.592-6.263,4.175S677.658,381.66,677.658,381.66Z" transform="translate(-390.97 -207.565)"/><path class="c" d="M671.842,367.8a6.017,6.017,0,0,0-4.175,3.2C666.553,373.636,671.842,367.8,671.842,367.8Z" transform="translate(-389.6 -200.66)"/><path class="c" d="M658.139,358.37c0,.557-1.952,10.3,0,14.332a20.062,20.062,0,0,1,1.666,8.767Z" transform="translate(-384.498 -195.962)"/><path class="c" d="M548.539,325.678s-1.089-1.28-2.2-1.139-1.807.833-3.2,1.39-4.727.7-4.727,1.114-2.926,2.088-4.873,2.509-8.069,4.592-9.6,12.661-4.175,10.433-4.175,10.433l14.749,7.246s-11.406,48.416-12.8,51.893-1.505,24.087-1.505,24.087,9.033,4.015,11.406,5.284,1.39-11.963,6.263-19.616,10.433-18.783,10.433-18.783l8.461-23.8s5.43-31.72.838-37.566S548.123,327.776,548.539,325.678Z" transform="translate(-315.993 -179.103)"/><path class="h" d="M547.449,325.678s-1.089-1.28-2.2-1.139-1.807.833-3.2,1.39-4.727.7-4.727,1.114-2.921,2.088-4.873,2.509-8.079,4.587-9.585,12.656-4.17,10.433-4.17,10.433l14.708,7.251s-11.406,48.416-12.8,51.893-1.505,24.087-1.505,24.087,9.033,4.015,11.406,5.284,1.39-12.014,6.258-19.646,10.433-18.783,10.433-18.783l8.486-23.766s5.43-31.72.838-37.566S547.033,327.776,547.449,325.678Z" transform="translate(-315.46 -179.103)"/><path class="c" d="M513.756,408.266c.411.065.938.13,1.546.186,4.456.406,13.2.5,13.2.5s6.524-12.942,12.1-12.546c0,0-5.149-5.841-7.231-5.144-.351.115-.572-.141-.677-.642-.557-2.509,1.37-11.04,1.37-11.04l2.645-11.542-15.306,3.754A41.706,41.706,0,0,0,515.7,374.3s-.135,5.982-1.25,7.377-2.364,8.069-2.228,9.735-1.531,9.464.141,11.542S510.3,407.709,513.756,408.266Z" transform="translate(-311.936 -200.78)"/><path class="b" d="M613.2,621.241s.838,4.592-.135,7.527-.838,9.324-.141,11.542,3.061,5.284-3.337,6.674-10.714.141-10.995-.974-1.666-5.565-.557-8.069,1.505-9.033-.557-12.8-.693-9.6,1.255-10.292,5.289-2.228,5.289-2.228-3.618,6.524-.281,7.934S613.2,621.241,613.2,621.241Z" transform="translate(-354.2 -322.624)"/><path class="c" d="M569.11,283.117a16.591,16.591,0,0,0,4.562,11.462.584.584,0,0,0,.04-.08,7.307,7.307,0,0,0,.928-3.317c-.045-1.4-.853-2.665-1.114-4.05a10.625,10.625,0,0,1,.808-5.209c.411-1.234,1.209-2.735,2.509-2.584a2.89,2.89,0,0,0,.768.09c.688-.105.828-1,.908-1.7a7.7,7.7,0,0,1,6.288-6.6,1.947,1.947,0,0,1,1.1.075c.5.216.748.738,1.184,1.039,1.41.979,3.207-.893,4.923-.748,1.46.12,2.349,1.611,2.951,2.946s1.35,2.855,2.78,3.166a.878.878,0,0,0,.677-.075c.442-.326.135-1-.09-1.505a3.071,3.071,0,0,1,.5-3.317A16.691,16.691,0,0,0,569.1,283.127Z" transform="translate(-340.573 -150.161)"/><path class="i" d="M587.133,260.6c.226.5.537,1.194.085,1.505a.843.843,0,0,1-.672.075c-1.43-.306-2.183-1.832-2.785-3.166s-1.505-2.825-2.946-2.946c-1.716-.146-3.513,1.726-4.928.748-.432-.3-.7-.823-1.179-1.039a1.947,1.947,0,0,0-1.1-.07,7.7,7.7,0,0,0-6.293,6.6c-.07.688-.216,1.591-.9,1.7a2.87,2.87,0,0,1-.768-.09c-1.295-.151-2.088,1.345-2.509,2.579a10.635,10.635,0,0,0-.808,5.214c.261,1.385,1.069,2.65,1.114,4.055a7.681,7.681,0,0,1-.928,3.312c-.477,1.054-1.265,2.288-2.409,2.138-.943-.12-1.46-1.119-1.912-1.957s-1.265-1.731-2.178-1.47c-.411.12-.833.467-1.2.256a.878.878,0,0,1-.351-.607c-.447-1.942.2-4.13-.753-5.886-.728-1.35-2.2-2.083-3.4-3.041a9.745,9.745,0,0,1-1.32-13.951c1.285-1.505,3.131-2.83,3.237-4.8.075-1.505-.938-2.885-.948-4.391a5.291,5.291,0,0,1,2.007-3.769,12.962,12.962,0,0,1,11.652-3.071,9.3,9.3,0,0,0,3.262.527,11.394,11.394,0,0,0,3.513-1.6,8.933,8.933,0,0,1,11.146,3.011c1.315,2.052,1.832,4.727,3.8,6.167,1.29.943,3.146,1.3,3.859,2.73a4.88,4.88,0,0,1,.176,2.83,6.624,6.624,0,0,1-2.118,4.055C587.359,257.487,586.331,258.786,587.133,260.6Z" transform="translate(-329.385 -135.3)"/><g class="j" transform="translate(217.407 110.61)"><path d="M556.276,256.309a7.4,7.4,0,0,1-.3-1.159A7.282,7.282,0,0,1,556.276,256.309Z" transform="translate(-551.444 -255.15)"/><path d="M626.213,271.668a4.51,4.51,0,0,0-.276-.743c-.8-1.817.226-3.111,1.425-4.326a6.639,6.639,0,0,0,2.113-4.055,10.025,10.025,0,0,0,.121-1.285,2.754,2.754,0,0,1,.261.4,4.881,4.881,0,0,1,.176,2.83,6.624,6.624,0,0,1-2.118,4.055A4.588,4.588,0,0,0,626.213,271.668Z" transform="translate(-586.153 -258.194)"/><path d="M563.074,312.379c.913-.266,1.726.637,2.178,1.47s.969,1.837,1.912,1.957c1.144.146,1.932-1.089,2.409-2.138a7.593,7.593,0,0,0,.928-3.312,3.887,3.887,0,0,0-.04-.417,7.526,7.526,0,0,1,.6,2.364,7.682,7.682,0,0,1-.928,3.312c-.477,1.054-1.265,2.288-2.409,2.138-.943-.12-1.46-1.119-1.912-1.957s-1.265-1.731-2.178-1.47c-.411.12-.833.467-1.2.256a.878.878,0,0,1-.351-.607,7.705,7.705,0,0,1-.166-1.325C562.271,312.81,562.683,312.479,563.074,312.379Z" transform="translate(-554.398 -282.445)"/><path d="M549.906,292.34c1.2.958,2.68,1.691,3.407,3.041a4.829,4.829,0,0,1,.5,1.882c-.738-1.3-2.183-2.032-3.362-2.976a9.83,9.83,0,0,1-3.513-5.947,9.766,9.766,0,0,0,2.966,4Z" transform="translate(-546.94 -271.684)"/><path d="M577.242,288.475a10.912,10.912,0,0,1-.527-1.716,10.653,10.653,0,0,1,.808-5.214c.411-1.234,1.209-2.73,2.509-2.579a2.888,2.888,0,0,0,.768.09c.688-.105.833-1,.9-1.7A7.713,7.713,0,0,1,588,270.76a1.9,1.9,0,0,1,1.1.07c.5.216.748.738,1.179,1.039,1.415,1,3.212-.893,4.928-.748,1.455.12,2.349,1.611,2.951,2.946s1.355,2.855,2.78,3.167a.843.843,0,0,0,.672-.075.542.542,0,0,0,.221-.416,3.287,3.287,0,0,0,.251.848c.226.5.537,1.194.085,1.505a.843.843,0,0,1-.672.075c-1.43-.306-2.183-1.832-2.785-3.166s-1.505-2.825-2.946-2.946c-1.716-.146-3.513,1.726-4.928.748-.432-.3-.7-.823-1.179-1.039a1.947,1.947,0,0,0-1.1-.07,7.7,7.7,0,0,0-6.293,6.6c-.07.688-.216,1.591-.9,1.7a2.87,2.87,0,0,1-.768-.09c-1.295-.151-2.088,1.345-2.509,2.579A11.245,11.245,0,0,0,577.242,288.475Z" transform="translate(-561.726 -262.902)"/></g><path class="c" d="M519,430.87c4.456.406,13.2.5,13.2.5s6.524-12.942,12.1-12.546c0,0-5.149-5.841-7.231-5.144-.351.115-.572-.141-.677-.642-5.45,1.666-15.838,5.736-16.856,12.882C519.251,427.869,519.075,429.495,519,430.87Z" transform="translate(-315.614 -223.198)"/><path class="h" d="M517.85,430.87c4.456.406,13.2.5,13.2.5s6.524-12.942,12.1-12.546c0,0-5.144-5.841-7.231-5.144-.351.115-.567-.141-.677-.642-5.45,1.666-15.838,5.736-16.856,12.882C518.121,427.869,517.95,429.495,517.85,430.87Z" transform="translate(-315.041 -223.198)"/><path class="c" d="M581.212,520.9s-12.546-3.061-14.468-1.39S581.212,520.9,581.212,520.9Z" transform="translate(-339.321 -275.992)"/><path class="c" d="M661.427,546.63s-5.284,3.061-5.841,5.565S661.427,546.63,661.427,546.63Z" transform="translate(-383.641 -289.749)"/><path class="c" d="M615.888,658.534s-7.236-1.114-9.088.09S615.888,658.534,615.888,658.534Z" transform="translate(-359.249 -345.263)"/><path class="k" d="M481.07,758.115s28.042-1.505,34.877-5.52,16.51-4.015,16.56-4.015l111.655-24.358,46.418-11.04,8.28-1.089L671.511,680.8l-.833-.361L630.362,663s-18.066,1-21.633,12.776a14.127,14.127,0,0,0-.5,2.539,14.718,14.718,0,0,0,2.85,10.3,21.881,21.881,0,0,1,3.729,7.151,4.23,4.23,0,0,1-.5,3.613,29.45,29.45,0,0,1-4.958,3.959c-9.831,6.524-34.681,17.273-78.094.808,0,0-18.567-18.317-32.618-10.538S481.07,758.115,481.07,758.115Z" transform="translate(-296.718 -347.722)"/><path class="c" d="M740.943,695.789a4.229,4.229,0,0,1-.5,3.613,29.452,29.452,0,0,1-4.958,3.959L820,709.669l-23.164-29.231L756.52,663s-18.066,1-21.633,12.776a14.128,14.128,0,0,0-.5,2.539,14.718,14.718,0,0,0,2.85,10.3A22.638,22.638,0,0,1,740.943,695.789Z" transform="translate(-422.876 -347.722)"/><path class="b" d="M729.611,464.31l-69.251,1.505v82.9L726.1,593.278l15.807-14.553-3.262-48.175,3.262-44.913Z" transform="translate(-328.975 -231.311)"/><path class="l" d="M635.148,446.751l-80.854-24.9a12.145,12.145,0,0,0-4.516-.5l-193.151,14.1a91.191,91.191,0,0,0-46,16.224c-12.5,8.817-24.88,22.351-30.611,42.841a81.8,81.8,0,0,0,.868,46.072l17.037,55.2s-12.8-119.935,114.917-125.957Z" transform="translate(-195.118 -227.321)"/><path class="m" d="M737.195,701.342a21.88,21.88,0,0,1,3.729,7.151c2.188-2.534,2.66-5.395-.5-7.678-3.959-2.88-5.279-7.879-5.575-12.315a14.136,14.136,0,0,0-.5,2.539A14.718,14.718,0,0,0,737.195,701.342Z" transform="translate(-422.856 -360.426)"/><path class="b" d="M336.07,638.624l9.535,32.367,21.578,21.076,27.1,5.52,42.153-7.527V540.267s-7.276-4.767-8.029-4.767-21.077,3.262-21.077,3.262l-46.017,33-1.907,1.37L338.83,603.748Z" transform="translate(-224.482 -284.204)"/><path class="b" d="M418.325,497.81V653.877l-4.065.728V497.81Z" transform="translate(-206.373 -248)"/><path class="c" d="M729.611,464.31l-69.251,1.505v82.9L726.1,593.278l15.807-14.553-3.262-48.175,3.262-44.913Z" transform="translate(-328.975 -231.311)"/><path class="c" d="M418.325,497.81V653.877l-4.065.728V497.81Z" transform="translate(-206.373 -248)"/><path class="c" d="M384.57,582.189c30.109-24.74,63.581-28.378,76.026-28.83V540.267s-7.276-4.767-8.029-4.767-21.077,3.262-21.077,3.262l-46.017,33Z" transform="translate(-248.644 -284.204)"/><path class="b" d="M978.587,544.231s-3.106,8.21-6.438,17.769c-2.951,8.5-6.082,18.066-7.362,23.882a17.422,17.422,0,0,1-3.543,6.76c-8.125,10.312-26.848,20.3-30.079,23.852-3.939,4.326-26.095,7.442-26.095,7.442V490.807l14.8-4.767h18.818l24.338,11.04,12.546,18.567Z" transform="translate(-507.946 -259.565)"/><path class="g" d="M536.946,432.925c.974,1.184,30.541,1.46,32.071,1.114l2.78-.627s14.272,7.683,24.087-4.888c.422-.537.833-1.109,1.234-1.721,9.811-14.954-22.888-4.015-22.888-4.015s-12.521.07-15.722.07h-.331c-3.327-.135-9.961-2.153-9.961-2.153S535.977,431.746,536.946,432.925Z" transform="translate(-324.527 -226.131)"/><path class="c" d="M598.448,428.418s12.521.07,15.722.105h.075c.422-.537.833-1.109,1.234-1.721,9.811-14.954-22.888-4.015-22.888-4.015s-12.52.07-15.722.07h-.331c-.316.411-.627.843-.933,1.3C565.624,438.982,598.448,428.418,598.448,428.418Z" transform="translate(-342.872 -226.131)"/><path class="g" d="M624.425,425.274s-7.071-2.238-10.272-2.273-15.722-.1-15.722-.1-32.814,10.538-22.843-4.291,25.4-6.328,25.4-6.328l2.785-.6c1.536-.331,31.113.276,32.056,1.47S624.425,425.274,624.425,425.274Z" transform="translate(-342.865 -221.612)"/><path class="h" d="M686.355,413.069s-.2,9.65-6.89,10.2c-14.051,1.149-10.478-4.281-10.478-4.281l1.214-10.809,6.619-5.992s2.906,1.335,3.282,1.109S686.355,413.069,686.355,413.069Z" transform="translate(-390.132 -217.792)"/><path class="h" d="M512.636,408.266c.411.065.938.13,1.546.186,4.456.406,13.2.5,13.2.5s6.524-12.942,12.1-12.546c0,0-5.144-5.841-7.231-5.144-.351.115-.567-.141-.677-.642-.552-2.509,1.37-11.04,1.37-11.04l2.645-11.542-15.316,3.774a41.581,41.581,0,0,0-5.7,2.509s-.141,5.982-1.255,7.377-2.364,8.069-2.228,9.735-1.531,9.464.141,11.542S509.159,407.709,512.636,408.266Z" transform="translate(-311.373 -200.78)"/><path class="c" d="M532.827,387.76s-12.8,1.39-13.354,4.592S532.827,387.76,532.827,387.76Z" transform="translate(-315.842 -210.604)"/><path class="c" d="M524.139,412.71c-.833.281-5.7,1.531-6.674,4.456S524.139,412.71,524.139,412.71Z" transform="translate(-314.807 -223.033)"/><path class="c" d="M519,431.9c4.456.406,13.2.5,13.2.5s6.524-12.942,12.1-12.546c0,0-5.149-5.841-7.231-5.144-.351.115-.572-.141-.677-.642-5.45,1.666-15.838,5.736-16.856,12.882C519.251,428.9,519.075,430.525,519,431.9Z" transform="translate(-315.614 -223.711)"/><path class="d" d="M691.866,351.32v55.667c0,.958-.5,1.094-1.35,1.561a18.655,18.655,0,0,1-18.131-.06c-.858-.452-1.385-.607-1.385-1.576V351.661S681.614,355.957,691.866,351.32Z" transform="translate(-391.337 -192.45)"/><ellipse class="n" cx="10.433" cy="2.218" rx="10.433" ry="2.218" transform="translate(279.663 156.617)"/><g class="o" transform="translate(280.375 181.753)"><circle cx="0.236" cy="0.236" r="0.236" transform="translate(18.964)"/><circle cx="0.236" cy="0.236" r="0.236" transform="translate(17.78 0.331)"/><circle cx="0.236" cy="0.236" r="0.236" transform="translate(16.309 0.798)"/><circle cx="0.236" cy="0.236" r="0.236" transform="translate(13.675 1.365)"/><circle cx="0.236" cy="0.236" r="0.236" transform="translate(10.9 1.701)"/><circle cx="0.236" cy="0.236" r="0.236" transform="translate(8.029 1.837)"/><circle cx="0.236" cy="0.236" r="0.236" transform="translate(3.899 1.27)"/><circle cx="0.236" cy="0.236" r="0.236" transform="translate(5.269 1.601)"/><circle cx="0.236" cy="0.236" r="0.236" transform="translate(1.35 0.798)"/><circle cx="0.236" cy="0.236" r="0.236" transform="translate(2.579 1.034)"/><circle cx="0.236" cy="0.236" r="0.236" transform="translate(0 0.331)"/><circle cx="0.236" cy="0.236" r="0.236" transform="translate(14.964 1.134)"/><circle cx="0.236" cy="0.236" r="0.236" transform="translate(12.249 1.601)"/><circle cx="0.236" cy="0.236" r="0.236" transform="translate(9.304 1.837)"/><circle cx="0.236" cy="0.236" r="0.236" transform="translate(6.619 1.837)"/></g><g class="o" transform="translate(280.375 182.902)"><circle cx="0.236" cy="0.236" r="0.236" transform="translate(18.964)"/><circle cx="0.236" cy="0.236" r="0.236" transform="translate(17.78 0.336)"/><circle cx="0.236" cy="0.236" r="0.236" transform="translate(16.309 0.803)"/><circle cx="0.236" cy="0.236" r="0.236" transform="translate(13.675 1.37)"/><circle cx="0.236" cy="0.236" r="0.236" transform="translate(10.9 1.706)"/><circle cx="0.236" cy="0.236" r="0.236" transform="translate(8.029 1.837)"/><circle cx="0.236" cy="0.236" r="0.236" transform="translate(3.899 1.27)"/><circle cx="0.236" cy="0.236" r="0.236" transform="translate(5.269 1.606)"/><circle cx="0.236" cy="0.236" r="0.236" transform="translate(1.35 0.803)"/><circle cx="0.236" cy="0.236" r="0.236" transform="translate(2.579 1.039)"/><circle cx="0.236" cy="0.236" r="0.236" transform="translate(0 0.336)"/><circle cx="0.236" cy="0.236" r="0.236" transform="translate(14.964 1.134)"/><circle cx="0.236" cy="0.236" r="0.236" transform="translate(12.249 1.606)"/><circle cx="0.236" cy="0.236" r="0.236" transform="translate(9.304 1.837)"/><circle cx="0.236" cy="0.236" r="0.236" transform="translate(6.619 1.837)"/></g><g class="o" transform="translate(280.375 184.056)"><circle cx="0.236" cy="0.236" r="0.236" transform="translate(18.964)"/><circle cx="0.236" cy="0.236" r="0.236" transform="translate(17.78 0.331)"/><circle cx="0.236" cy="0.236" r="0.236" transform="translate(16.309 0.798)"/><circle cx="0.236" cy="0.236" r="0.236" transform="translate(13.675 1.365)"/><circle cx="0.236" cy="0.236" r="0.236" transform="translate(10.9 1.701)"/><circle cx="0.236" cy="0.236" r="0.236" transform="translate(8.029 1.837)"/><circle cx="0.236" cy="0.236" r="0.236" transform="translate(3.899 1.27)"/><circle cx="0.236" cy="0.236" r="0.236" transform="translate(5.269 1.601)"/><circle cx="0.236" cy="0.236" r="0.236" transform="translate(1.35 0.798)"/><circle cx="0.236" cy="0.236" r="0.236" transform="translate(2.579 1.034)"/><circle cx="0.236" cy="0.236" r="0.236" transform="translate(0 0.331)"/><circle cx="0.236" cy="0.236" r="0.236" transform="translate(14.964 1.134)"/><circle cx="0.236" cy="0.236" r="0.236" transform="translate(12.249 1.601)"/><circle cx="0.236" cy="0.236" r="0.236" transform="translate(9.304 1.837)"/><circle cx="0.236" cy="0.236" r="0.236" transform="translate(6.619 1.837)"/></g><g class="o" transform="translate(280.375 185.211)"><circle cx="0.236" cy="0.236" r="0.236" transform="translate(18.964)"/><circle cx="0.236" cy="0.236" r="0.236" transform="translate(17.78 0.331)"/><circle cx="0.236" cy="0.236" r="0.236" transform="translate(16.309 0.798)"/><circle cx="0.236" cy="0.236" r="0.236" transform="translate(13.675 1.365)"/><circle cx="0.236" cy="0.236" r="0.236" transform="translate(10.9 1.701)"/><circle cx="0.236" cy="0.236" r="0.236" transform="translate(8.029 1.832)"/><circle cx="0.236" cy="0.236" r="0.236" transform="translate(3.899 1.265)"/><circle cx="0.236" cy="0.236" r="0.236" transform="translate(5.269 1.601)"/><circle cx="0.236" cy="0.236" r="0.236" transform="translate(1.35 0.798)"/><circle cx="0.236" cy="0.236" r="0.236" transform="translate(2.579 1.034)"/><circle cx="0.236" cy="0.236" r="0.236" transform="translate(0 0.331)"/><circle cx="0.236" cy="0.236" r="0.236" transform="translate(14.964 1.129)"/><circle cx="0.236" cy="0.236" r="0.236" transform="translate(12.249 1.601)"/><circle cx="0.236" cy="0.236" r="0.236" transform="translate(9.304 1.832)"/><circle cx="0.236" cy="0.236" r="0.236" transform="translate(6.619 1.832)"/></g><g class="o" transform="translate(280.375 186.36)"><circle cx="0.236" cy="0.236" r="0.236" transform="translate(18.964)"/><circle cx="0.236" cy="0.236" r="0.236" transform="translate(17.78 0.331)"/><circle cx="0.236" cy="0.236" r="0.236" transform="translate(16.309 0.803)"/><circle cx="0.236" cy="0.236" r="0.236" transform="translate(13.675 1.37)"/><circle cx="0.236" cy="0.236" r="0.236" transform="translate(10.9 1.706)"/><circle cx="0.236" cy="0.236" r="0.236" transform="translate(8.029 1.837)"/><circle cx="0.236" cy="0.236" r="0.236" transform="translate(3.899 1.27)"/><circle cx="0.236" cy="0.236" r="0.236" transform="translate(5.269 1.601)"/><circle cx="0.236" cy="0.236" r="0.236" transform="translate(1.35 0.803)"/><circle cx="0.236" cy="0.236" r="0.236" transform="translate(2.579 1.034)"/><circle cx="0.236" cy="0.236" r="0.236" transform="translate(0 0.331)"/><circle cx="0.236" cy="0.236" r="0.236" transform="translate(14.964 1.134)"/><circle cx="0.236" cy="0.236" r="0.236" transform="translate(12.249 1.601)"/><circle cx="0.236" cy="0.236" r="0.236" transform="translate(9.304 1.837)"/><circle cx="0.236" cy="0.236" r="0.236" transform="translate(6.619 1.837)"/></g><g class="o" transform="translate(280.375 187.514)"><circle cx="0.236" cy="0.236" r="0.236" transform="translate(18.964)"/><circle cx="0.236" cy="0.236" r="0.236" transform="translate(17.78 0.331)"/><circle cx="0.236" cy="0.236" r="0.236" transform="translate(16.309 0.798)"/><circle cx="0.236" cy="0.236" r="0.236" transform="translate(13.675 1.365)"/><circle cx="0.236" cy="0.236" r="0.236" transform="translate(10.9 1.701)"/><circle cx="0.236" cy="0.236" r="0.236" transform="translate(8.029 1.832)"/><circle cx="0.236" cy="0.236" r="0.236" transform="translate(3.899 1.265)"/><circle cx="0.236" cy="0.236" r="0.236" transform="translate(5.269 1.601)"/><circle cx="0.236" cy="0.236" r="0.236" transform="translate(1.35 0.798)"/><circle cx="0.236" cy="0.236" r="0.236" transform="translate(2.579 1.034)"/><circle cx="0.236" cy="0.236" r="0.236" transform="translate(0 0.331)"/><circle cx="0.236" cy="0.236" r="0.236" transform="translate(14.964 1.129)"/><circle cx="0.236" cy="0.236" r="0.236" transform="translate(12.249 1.601)"/><circle cx="0.236" cy="0.236" r="0.236" transform="translate(9.304 1.832)"/><circle cx="0.236" cy="0.236" r="0.236" transform="translate(6.619 1.832)"/></g><g class="o" transform="translate(280.375 188.663)"><circle cx="0.236" cy="0.236" r="0.236" transform="translate(18.964)"/><circle cx="0.236" cy="0.236" r="0.236" transform="translate(17.78 0.331)"/><circle cx="0.236" cy="0.236" r="0.236" transform="translate(16.309 0.803)"/><circle cx="0.236" cy="0.236" r="0.236" transform="translate(13.675 1.37)"/><circle cx="0.236" cy="0.236" r="0.236" transform="translate(10.9 1.706)"/><circle cx="0.236" cy="0.236" r="0.236" transform="translate(8.029 1.837)"/><circle cx="0.236" cy="0.236" r="0.236" transform="translate(3.899 1.27)"/><circle cx="0.236" cy="0.236" r="0.236" transform="translate(5.269 1.601)"/><circle cx="0.236" cy="0.236" r="0.236" transform="translate(1.35 0.803)"/><circle cx="0.236" cy="0.236" r="0.236" transform="translate(2.579 1.034)"/><circle cx="0.236" cy="0.236" r="0.236" transform="translate(0 0.331)"/><circle cx="0.236" cy="0.236" r="0.236" transform="translate(14.964 1.134)"/><circle cx="0.236" cy="0.236" r="0.236" transform="translate(12.249 1.601)"/><circle cx="0.236" cy="0.236" r="0.236" transform="translate(9.304 1.837)"/><circle cx="0.236" cy="0.236" r="0.236" transform="translate(6.619 1.837)"/></g><g class="o" transform="translate(280.375 189.817)"><circle cx="0.236" cy="0.236" r="0.236" transform="translate(18.964)"/><circle cx="0.236" cy="0.236" r="0.236" transform="translate(17.78 0.331)"/><circle cx="0.236" cy="0.236" r="0.236" transform="translate(16.309 0.798)"/><circle cx="0.236" cy="0.236" r="0.236" transform="translate(13.675 1.365)"/><circle cx="0.236" cy="0.236" r="0.236" transform="translate(10.9 1.701)"/><circle cx="0.236" cy="0.236" r="0.236" transform="translate(8.029 1.837)"/><circle cx="0.236" cy="0.236" r="0.236" transform="translate(3.899 1.27)"/><circle cx="0.236" cy="0.236" r="0.236" transform="translate(5.269 1.601)"/><circle cx="0.236" cy="0.236" r="0.236" transform="translate(1.35 0.798)"/><circle cx="0.236" cy="0.236" r="0.236" transform="translate(2.579 1.034)"/><circle cx="0.236" cy="0.236" r="0.236" transform="translate(0 0.331)"/><circle cx="0.236" cy="0.236" r="0.236" transform="translate(14.964 1.134)"/><circle cx="0.236" cy="0.236" r="0.236" transform="translate(12.249 1.601)"/><circle cx="0.236" cy="0.236" r="0.236" transform="translate(9.304 1.837)"/><circle cx="0.236" cy="0.236" r="0.236" transform="translate(6.619 1.837)"/></g><g class="o" transform="translate(280.375 190.967)"><circle cx="0.236" cy="0.236" r="0.236" transform="translate(18.964)"/><circle cx="0.236" cy="0.236" r="0.236" transform="translate(17.78 0.331)"/><circle cx="0.236" cy="0.236" r="0.236" transform="translate(16.309 0.803)"/><circle cx="0.236" cy="0.236" r="0.236" transform="translate(13.675 1.37)"/><circle cx="0.236" cy="0.236" r="0.236" transform="translate(10.9 1.706)"/><circle cx="0.236" cy="0.236" r="0.236" transform="translate(8.029 1.837)"/><circle cx="0.236" cy="0.236" r="0.236" transform="translate(3.899 1.27)"/><circle cx="0.236" cy="0.236" r="0.236" transform="translate(5.269 1.601)"/><circle cx="0.236" cy="0.236" r="0.236" transform="translate(1.35 0.803)"/><circle cx="0.236" cy="0.236" r="0.236" transform="translate(2.579 1.034)"/><circle cx="0.236" cy="0.236" r="0.236" transform="translate(0 0.331)"/><circle cx="0.236" cy="0.236" r="0.236" transform="translate(14.964 1.134)"/><circle cx="0.236" cy="0.236" r="0.236" transform="translate(12.249 1.601)"/><circle cx="0.236" cy="0.236" r="0.236" transform="translate(9.304 1.837)"/><circle cx="0.236" cy="0.236" r="0.236" transform="translate(6.619 1.837)"/></g><g class="o" transform="translate(280.375 192.121)"><circle cx="0.236" cy="0.236" r="0.236" transform="translate(18.964)"/><circle cx="0.236" cy="0.236" r="0.236" transform="translate(17.78 0.331)"/><circle cx="0.236" cy="0.236" r="0.236" transform="translate(16.309 0.798)"/><circle cx="0.236" cy="0.236" r="0.236" transform="translate(13.675 1.365)"/><circle cx="0.236" cy="0.236" r="0.236" transform="translate(10.9 1.701)"/><circle cx="0.236" cy="0.236" r="0.236" transform="translate(8.029 1.837)"/><circle cx="0.236" cy="0.236" r="0.236" transform="translate(3.899 1.27)"/><circle cx="0.236" cy="0.236" r="0.236" transform="translate(5.269 1.601)"/><circle cx="0.236" cy="0.236" r="0.236" transform="translate(1.35 0.798)"/><circle cx="0.236" cy="0.236" r="0.236" transform="translate(2.579 1.034)"/><circle cx="0.236" cy="0.236" r="0.236" transform="translate(0 0.331)"/><circle cx="0.236" cy="0.236" r="0.236" transform="translate(14.964 1.134)"/><circle cx="0.236" cy="0.236" r="0.236" transform="translate(12.249 1.601)"/><circle cx="0.236" cy="0.236" r="0.236" transform="translate(9.304 1.837)"/><circle cx="0.236" cy="0.236" r="0.236" transform="translate(6.619 1.837)"/></g><g class="o" transform="translate(280.375 193.27)"><circle cx="0.236" cy="0.236" r="0.236" transform="translate(18.964)"/><circle cx="0.236" cy="0.236" r="0.236" transform="translate(17.78 0.336)"/><circle cx="0.236" cy="0.236" r="0.236" transform="translate(16.309 0.803)"/><circle cx="0.236" cy="0.236" r="0.236" transform="translate(13.675 1.37)"/><circle cx="0.236" cy="0.236" r="0.236" transform="translate(10.9 1.706)"/><circle cx="0.236" cy="0.236" r="0.236" transform="translate(8.029 1.837)"/><circle cx="0.236" cy="0.236" r="0.236" transform="translate(3.899 1.27)"/><circle cx="0.236" cy="0.236" r="0.236" transform="translate(5.269 1.606)"/><circle cx="0.236" cy="0.236" r="0.236" transform="translate(1.35 0.803)"/><circle cx="0.236" cy="0.236" r="0.236" transform="translate(2.579 1.039)"/><circle cx="0.236" cy="0.236" r="0.236" transform="translate(0 0.336)"/><circle cx="0.236" cy="0.236" r="0.236" transform="translate(14.964 1.134)"/><circle cx="0.236" cy="0.236" r="0.236" transform="translate(12.249 1.606)"/><circle cx="0.236" cy="0.236" r="0.236" transform="translate(9.304 1.837)"/><circle cx="0.236" cy="0.236" r="0.236" transform="translate(6.619 1.837)"/></g><g class="o" transform="translate(280.375 194.424)"><circle cx="0.236" cy="0.236" r="0.236" transform="translate(18.964)"/><circle cx="0.236" cy="0.236" r="0.236" transform="translate(17.78 0.331)"/><circle cx="0.236" cy="0.236" r="0.236" transform="translate(16.309 0.798)"/><circle cx="0.236" cy="0.236" r="0.236" transform="translate(13.675 1.365)"/><circle cx="0.236" cy="0.236" r="0.236" transform="translate(10.9 1.701)"/><circle cx="0.236" cy="0.236" r="0.236" transform="translate(8.029 1.837)"/><circle cx="0.236" cy="0.236" r="0.236" transform="translate(3.899 1.27)"/><circle cx="0.236" cy="0.236" r="0.236" transform="translate(5.269 1.601)"/><circle cx="0.236" cy="0.236" r="0.236" transform="translate(1.35 0.798)"/><circle cx="0.236" cy="0.236" r="0.236" transform="translate(2.579 1.034)"/><circle cx="0.236" cy="0.236" r="0.236" transform="translate(0 0.331)"/><circle cx="0.236" cy="0.236" r="0.236" transform="translate(14.964 1.134)"/><circle cx="0.236" cy="0.236" r="0.236" transform="translate(12.249 1.601)"/><circle cx="0.236" cy="0.236" r="0.236" transform="translate(9.304 1.837)"/><circle cx="0.236" cy="0.236" r="0.236" transform="translate(6.619 1.837)"/></g><g class="o" transform="translate(280.375 195.578)"><circle cx="0.236" cy="0.236" r="0.236" transform="translate(18.964)"/><circle cx="0.236" cy="0.236" r="0.236" transform="translate(17.78 0.331)"/><circle cx="0.236" cy="0.236" r="0.236" transform="translate(16.309 0.798)"/><circle cx="0.236" cy="0.236" r="0.236" transform="translate(13.675 1.365)"/><circle cx="0.236" cy="0.236" r="0.236" transform="translate(10.9 1.701)"/><circle cx="0.236" cy="0.236" r="0.236" transform="translate(8.029 1.832)"/><circle cx="0.236" cy="0.236" r="0.236" transform="translate(3.899 1.265)"/><circle cx="0.236" cy="0.236" r="0.236" transform="translate(5.269 1.601)"/><circle cx="0.236" cy="0.236" r="0.236" transform="translate(1.35 0.798)"/><circle cx="0.236" cy="0.236" r="0.236" transform="translate(2.579 1.034)"/><circle cx="0.236" cy="0.236" r="0.236" transform="translate(0 0.331)"/><circle cx="0.236" cy="0.236" r="0.236" transform="translate(14.964 1.129)"/><circle cx="0.236" cy="0.236" r="0.236" transform="translate(12.249 1.601)"/><circle cx="0.236" cy="0.236" r="0.236" transform="translate(9.304 1.832)"/><circle cx="0.236" cy="0.236" r="0.236" transform="translate(6.619 1.832)"/></g><g class="o" transform="translate(280.375 196.727)"><circle cx="0.236" cy="0.236" r="0.236" transform="translate(18.964)"/><circle cx="0.236" cy="0.236" r="0.236" transform="translate(17.78 0.331)"/><circle cx="0.236" cy="0.236" r="0.236" transform="translate(16.309 0.803)"/><circle cx="0.236" cy="0.236" r="0.236" transform="translate(13.675 1.37)"/><circle cx="0.236" cy="0.236" r="0.236" transform="translate(10.9 1.706)"/><circle cx="0.236" cy="0.236" r="0.236" transform="translate(8.029 1.837)"/><circle cx="0.236" cy="0.236" r="0.236" transform="translate(3.899 1.27)"/><circle cx="0.236" cy="0.236" r="0.236" transform="translate(5.269 1.601)"/><circle cx="0.236" cy="0.236" r="0.236" transform="translate(1.35 0.803)"/><circle cx="0.236" cy="0.236" r="0.236" transform="translate(2.579 1.034)"/><circle cx="0.236" cy="0.236" r="0.236" transform="translate(0 0.331)"/><circle cx="0.236" cy="0.236" r="0.236" transform="translate(14.964 1.134)"/><circle cx="0.236" cy="0.236" r="0.236" transform="translate(12.249 1.601)"/><circle cx="0.236" cy="0.236" r="0.236" transform="translate(9.304 1.837)"/><circle cx="0.236" cy="0.236" r="0.236" transform="translate(6.619 1.837)"/></g><g class="o" transform="translate(280.375 197.882)"><circle cx="0.236" cy="0.236" r="0.236" transform="translate(18.964)"/><circle cx="0.236" cy="0.236" r="0.236" transform="translate(17.78 0.331)"/><circle cx="0.236" cy="0.236" r="0.236" transform="translate(16.309 0.798)"/><circle cx="0.236" cy="0.236" r="0.236" transform="translate(13.675 1.365)"/><circle cx="0.236" cy="0.236" r="0.236" transform="translate(10.9 1.701)"/><circle cx="0.236" cy="0.236" r="0.236" transform="translate(8.029 1.832)"/><circle cx="0.236" cy="0.236" r="0.236" transform="translate(3.899 1.265)"/><circle cx="0.236" cy="0.236" r="0.236" transform="translate(5.269 1.601)"/><circle cx="0.236" cy="0.236" r="0.236" transform="translate(1.35 0.798)"/><circle cx="0.236" cy="0.236" r="0.236" transform="translate(2.579 1.034)"/><circle cx="0.236" cy="0.236" r="0.236" transform="translate(0 0.331)"/><circle cx="0.236" cy="0.236" r="0.236" transform="translate(14.964 1.129)"/><circle cx="0.236" cy="0.236" r="0.236" transform="translate(12.249 1.601)"/><circle cx="0.236" cy="0.236" r="0.236" transform="translate(9.304 1.832)"/><circle cx="0.236" cy="0.236" r="0.236" transform="translate(6.619 1.832)"/></g><g class="o" transform="translate(280.375 199.031)"><circle cx="0.236" cy="0.236" r="0.236" transform="translate(18.964)"/><circle cx="0.236" cy="0.236" r="0.236" transform="translate(17.78 0.331)"/><circle cx="0.236" cy="0.236" r="0.236" transform="translate(16.309 0.803)"/><circle cx="0.236" cy="0.236" r="0.236" transform="translate(13.675 1.37)"/><circle cx="0.236" cy="0.236" r="0.236" transform="translate(10.9 1.706)"/><circle cx="0.236" cy="0.236" r="0.236" transform="translate(8.029 1.837)"/><circle cx="0.236" cy="0.236" r="0.236" transform="translate(3.899 1.27)"/><circle cx="0.236" cy="0.236" r="0.236" transform="translate(5.269 1.601)"/><circle cx="0.236" cy="0.236" r="0.236" transform="translate(1.35 0.803)"/><circle cx="0.236" cy="0.236" r="0.236" transform="translate(2.579 1.034)"/><circle cx="0.236" cy="0.236" r="0.236" transform="translate(0 0.331)"/><circle cx="0.236" cy="0.236" r="0.236" transform="translate(14.964 1.134)"/><circle cx="0.236" cy="0.236" r="0.236" transform="translate(12.249 1.601)"/><circle cx="0.236" cy="0.236" r="0.236" transform="translate(9.304 1.837)"/><circle cx="0.236" cy="0.236" r="0.236" transform="translate(6.619 1.837)"/></g><g class="o" transform="translate(280.375 200.185)"><circle cx="0.236" cy="0.236" r="0.236" transform="translate(18.964)"/><circle cx="0.236" cy="0.236" r="0.236" transform="translate(17.78 0.331)"/><circle cx="0.236" cy="0.236" r="0.236" transform="translate(16.309 0.798)"/><circle cx="0.236" cy="0.236" r="0.236" transform="translate(13.675 1.365)"/><circle cx="0.236" cy="0.236" r="0.236" transform="translate(10.9 1.701)"/><circle cx="0.236" cy="0.236" r="0.236" transform="translate(8.029 1.837)"/><circle cx="0.236" cy="0.236" r="0.236" transform="translate(3.899 1.27)"/><circle cx="0.236" cy="0.236" r="0.236" transform="translate(5.269 1.601)"/><circle cx="0.236" cy="0.236" r="0.236" transform="translate(1.35 0.798)"/><circle cx="0.236" cy="0.236" r="0.236" transform="translate(2.579 1.034)"/><circle cx="0.236" cy="0.236" r="0.236" transform="translate(0 0.331)"/><circle cx="0.236" cy="0.236" r="0.236" transform="translate(14.964 1.134)"/><circle cx="0.236" cy="0.236" r="0.236" transform="translate(12.249 1.601)"/><circle cx="0.236" cy="0.236" r="0.236" transform="translate(9.304 1.837)"/><circle cx="0.236" cy="0.236" r="0.236" transform="translate(6.619 1.837)"/></g><g class="o" transform="translate(280.375 201.334)"><circle cx="0.236" cy="0.236" r="0.236" transform="translate(18.964)"/><circle cx="0.236" cy="0.236" r="0.236" transform="translate(17.78 0.331)"/><circle cx="0.236" cy="0.236" r="0.236" transform="translate(16.309 0.803)"/><circle cx="0.236" cy="0.236" r="0.236" transform="translate(13.675 1.37)"/><circle cx="0.236" cy="0.236" r="0.236" transform="translate(10.9 1.706)"/><circle cx="0.236" cy="0.236" r="0.236" transform="translate(8.029 1.837)"/><circle cx="0.236" cy="0.236" r="0.236" transform="translate(3.899 1.27)"/><circle cx="0.236" cy="0.236" r="0.236" transform="translate(5.269 1.601)"/><circle cx="0.236" cy="0.236" r="0.236" transform="translate(1.35 0.803)"/><circle cx="0.236" cy="0.236" r="0.236" transform="translate(2.579 1.034)"/><circle cx="0.236" cy="0.236" r="0.236" transform="translate(0 0.331)"/><circle cx="0.236" cy="0.236" r="0.236" transform="translate(14.964 1.134)"/><circle cx="0.236" cy="0.236" r="0.236" transform="translate(12.249 1.601)"/><circle cx="0.236" cy="0.236" r="0.236" transform="translate(9.304 1.837)"/><circle cx="0.236" cy="0.236" r="0.236" transform="translate(6.619 1.837)"/></g><g class="o" transform="translate(280.375 202.488)"><circle cx="0.236" cy="0.236" r="0.236" transform="translate(18.964)"/><circle cx="0.236" cy="0.236" r="0.236" transform="translate(17.78 0.331)"/><circle cx="0.236" cy="0.236" r="0.236" transform="translate(16.309 0.798)"/><circle cx="0.236" cy="0.236" r="0.236" transform="translate(13.675 1.365)"/><circle cx="0.236" cy="0.236" r="0.236" transform="translate(10.9 1.701)"/><circle cx="0.236" cy="0.236" r="0.236" transform="translate(8.029 1.837)"/><circle cx="0.236" cy="0.236" r="0.236" transform="translate(3.899 1.27)"/><circle cx="0.236" cy="0.236" r="0.236" transform="translate(5.269 1.601)"/><circle cx="0.236" cy="0.236" r="0.236" transform="translate(1.35 0.798)"/><circle cx="0.236" cy="0.236" r="0.236" transform="translate(2.579 1.034)"/><circle cx="0.236" cy="0.236" r="0.236" transform="translate(0 0.331)"/><circle cx="0.236" cy="0.236" r="0.236" transform="translate(14.964 1.134)"/><circle cx="0.236" cy="0.236" r="0.236" transform="translate(12.249 1.601)"/><circle cx="0.236" cy="0.236" r="0.236" transform="translate(9.304 1.837)"/><circle cx="0.236" cy="0.236" r="0.236" transform="translate(6.619 1.837)"/></g><g class="o" transform="translate(280.375 203.638)"><circle cx="0.236" cy="0.236" r="0.236" transform="translate(18.964)"/><circle cx="0.236" cy="0.236" r="0.236" transform="translate(17.78 0.336)"/><circle cx="0.236" cy="0.236" r="0.236" transform="translate(16.309 0.803)"/><circle cx="0.236" cy="0.236" r="0.236" transform="translate(13.675 1.37)"/><circle cx="0.236" cy="0.236" r="0.236" transform="translate(10.9 1.706)"/><circle cx="0.236" cy="0.236" r="0.236" transform="translate(8.029 1.837)"/><circle cx="0.236" cy="0.236" r="0.236" transform="translate(3.899 1.27)"/><circle cx="0.236" cy="0.236" r="0.236" transform="translate(5.269 1.606)"/><circle cx="0.236" cy="0.236" r="0.236" transform="translate(1.35 0.803)"/><circle cx="0.236" cy="0.236" r="0.236" transform="translate(2.579 1.039)"/><circle cx="0.236" cy="0.236" r="0.236" transform="translate(0 0.336)"/><circle cx="0.236" cy="0.236" r="0.236" transform="translate(14.964 1.134)"/><circle cx="0.236" cy="0.236" r="0.236" transform="translate(12.249 1.606)"/><circle cx="0.236" cy="0.236" r="0.236" transform="translate(9.304 1.837)"/><circle cx="0.236" cy="0.236" r="0.236" transform="translate(6.619 1.837)"/></g><g class="o" transform="translate(280.375 204.792)"><circle cx="0.236" cy="0.236" r="0.236" transform="translate(18.964)"/><circle cx="0.236" cy="0.236" r="0.236" transform="translate(17.78 0.331)"/><circle cx="0.236" cy="0.236" r="0.236" transform="translate(16.309 0.798)"/><circle cx="0.236" cy="0.236" r="0.236" transform="translate(13.675 1.365)"/><circle cx="0.236" cy="0.236" r="0.236" transform="translate(10.9 1.701)"/><circle cx="0.236" cy="0.236" r="0.236" transform="translate(8.029 1.837)"/><circle cx="0.236" cy="0.236" r="0.236" transform="translate(3.899 1.27)"/><circle cx="0.236" cy="0.236" r="0.236" transform="translate(5.269 1.601)"/><circle cx="0.236" cy="0.236" r="0.236" transform="translate(1.35 0.798)"/><circle cx="0.236" cy="0.236" r="0.236" transform="translate(2.579 1.034)"/><circle cx="0.236" cy="0.236" r="0.236" transform="translate(0 0.331)"/><circle cx="0.236" cy="0.236" r="0.236" transform="translate(14.964 1.134)"/><circle cx="0.236" cy="0.236" r="0.236" transform="translate(12.249 1.601)"/><circle cx="0.236" cy="0.236" r="0.236" transform="translate(9.304 1.837)"/><circle cx="0.236" cy="0.236" r="0.236" transform="translate(6.619 1.837)"/></g><g class="o" transform="translate(280.375 205.941)"><circle cx="0.236" cy="0.236" r="0.236" transform="translate(18.964)"/><circle cx="0.236" cy="0.236" r="0.236" transform="translate(17.78 0.336)"/><circle cx="0.236" cy="0.236" r="0.236" transform="translate(16.309 0.803)"/><circle cx="0.236" cy="0.236" r="0.236" transform="translate(13.675 1.37)"/><circle cx="0.236" cy="0.236" r="0.236" transform="translate(10.9 1.706)"/><circle cx="0.236" cy="0.236" r="0.236" transform="translate(8.029 1.837)"/><circle cx="0.236" cy="0.236" r="0.236" transform="translate(3.899 1.27)"/><circle cx="0.236" cy="0.236" r="0.236" transform="translate(5.269 1.606)"/><circle cx="0.236" cy="0.236" r="0.236" transform="translate(1.35 0.803)"/><circle cx="0.236" cy="0.236" r="0.236" transform="translate(2.579 1.039)"/><circle cx="0.236" cy="0.236" r="0.236" transform="translate(0 0.336)"/><circle cx="0.236" cy="0.236" r="0.236" transform="translate(14.964 1.134)"/><circle cx="0.236" cy="0.236" r="0.236" transform="translate(12.249 1.606)"/><circle cx="0.236" cy="0.236" r="0.236" transform="translate(9.304 1.837)"/><circle cx="0.236" cy="0.236" r="0.236" transform="translate(6.619 1.837)"/></g><g class="o" transform="translate(280.375 207.095)"><circle cx="0.236" cy="0.236" r="0.236" transform="translate(18.964)"/><circle cx="0.236" cy="0.236" r="0.236" transform="translate(17.78 0.331)"/><circle cx="0.236" cy="0.236" r="0.236" transform="translate(16.309 0.803)"/><circle cx="0.236" cy="0.236" r="0.236" transform="translate(13.675 1.37)"/><circle cx="0.236" cy="0.236" r="0.236" transform="translate(10.9 1.706)"/><circle cx="0.236" cy="0.236" r="0.236" transform="translate(8.029 1.837)"/><circle cx="0.236" cy="0.236" r="0.236" transform="translate(3.899 1.27)"/><circle cx="0.236" cy="0.236" r="0.236" transform="translate(5.269 1.601)"/><circle cx="0.236" cy="0.236" r="0.236" transform="translate(1.35 0.803)"/><circle cx="0.236" cy="0.236" r="0.236" transform="translate(2.579 1.034)"/><circle cx="0.236" cy="0.236" r="0.236" transform="translate(0 0.331)"/><circle cx="0.236" cy="0.236" r="0.236" transform="translate(14.964 1.134)"/><circle cx="0.236" cy="0.236" r="0.236" transform="translate(12.249 1.601)"/><circle cx="0.236" cy="0.236" r="0.236" transform="translate(9.304 1.837)"/><circle cx="0.236" cy="0.236" r="0.236" transform="translate(6.619 1.837)"/></g><g class="o" transform="translate(280.375 208.249)"><circle cx="0.236" cy="0.236" r="0.236" transform="translate(18.964)"/><circle cx="0.236" cy="0.236" r="0.236" transform="translate(17.78 0.331)"/><circle cx="0.236" cy="0.236" r="0.236" transform="translate(16.309 0.798)"/><circle cx="0.236" cy="0.236" r="0.236" transform="translate(13.675 1.365)"/><circle cx="0.236" cy="0.236" r="0.236" transform="translate(10.9 1.701)"/><circle cx="0.236" cy="0.236" r="0.236" transform="translate(8.029 1.832)"/><circle cx="0.236" cy="0.236" r="0.236" transform="translate(3.899 1.265)"/><circle cx="0.236" cy="0.236" r="0.236" transform="translate(5.269 1.601)"/><circle cx="0.236" cy="0.236" r="0.236" transform="translate(1.35 0.798)"/><circle cx="0.236" cy="0.236" r="0.236" transform="translate(2.579 1.034)"/><circle cx="0.236" cy="0.236" r="0.236" transform="translate(0 0.331)"/><circle cx="0.236" cy="0.236" r="0.236" transform="translate(14.964 1.129)"/><circle cx="0.236" cy="0.236" r="0.236" transform="translate(12.249 1.601)"/><circle cx="0.236" cy="0.236" r="0.236" transform="translate(9.304 1.832)"/><circle cx="0.236" cy="0.236" r="0.236" transform="translate(6.619 1.832)"/></g><circle class="a" cx="10.854" cy="10.854" r="10.854" transform="translate(402.142 35.748)"/><circle class="a" cx="8.536" cy="8.536" r="8.536" transform="translate(452.636 64.663)"/><circle class="a" cx="3.011" cy="3.011" r="3.011" transform="translate(482.037 29.054)"/><path class="h" d="M228.088,724.25s3.578,4.682-1.651,11.748-9.535,13.047-7.8,17.443c0,0,7.894-13.128,14.322-13.308S235.184,732.154,228.088,724.25Z" transform="translate(-165.784 -378.236)"/><path class="c" d="M228.285,724.25a5.764,5.764,0,0,1,.733,1.465c6.268,7.367,9.61,14.242,3.583,14.417-5.615.161-12.35,10.2-13.961,12.731a4.567,4.567,0,0,0,.191.577s7.894-13.128,14.322-13.308S235.381,732.154,228.285,724.25Z" transform="translate(-165.981 -378.236)"/><path class="p" d="M250.3,735.091c0,1.646-.186,2.981-.411,2.981s-.411-1.335-.411-2.981.231-.873.457-.873S250.3,733.44,250.3,735.091Z" transform="translate(-181.345 -383.11)"/><path class="p" d="M252.868,738.937c-1.445.788-2.7,1.265-2.815,1.064s.974-1,2.424-1.792.873-.216,1,0S254.318,738.149,252.868,738.937Z" transform="translate(-181.626 -384.989)"/><path class="h" d="M192.2,724.25s-3.578,4.682,1.651,11.748,9.535,13.047,7.808,17.443c0,0-7.9-13.128-14.322-13.308S185.126,732.154,192.2,724.25Z" transform="translate(-148.807 -378.236)"/><path class="c" d="M192.2,724.25a5.765,5.765,0,0,0-.733,1.465c-6.268,7.367-9.61,14.242-3.583,14.417,5.615.161,12.35,10.2,13.966,12.731a5.55,5.55,0,0,1-.191.577s-7.9-13.128-14.322-13.308S185.126,732.154,192.2,724.25Z" transform="translate(-148.807 -378.236)"/><path class="p" d="M186.91,735.091c0,1.646.186,2.981.411,2.981s.411-1.335.411-2.981-.231-.873-.457-.873S186.91,733.44,186.91,735.091Z" transform="translate(-150.174 -383.11)"/><path class="p" d="M181.467,738.937c1.445.788,2.7,1.265,2.815,1.064s-.974-1-2.424-1.792-.873-.216-1,0S180.017,738.149,181.467,738.937Z" transform="translate(-147.015 -384.989)"/><ellipse class="a" cx="37.436" cy="5.746" rx="37.436" ry="5.746" transform="matrix(0.998, -0.071, 0.071, 0.998, 15.065, 402.205)"/><path class="b" d="M219.147,767.678l-.181,1.46-.251,2.068-.1.858-.251,2.068-.11.863L218,777.057l-2.865,23.485c-.256,2.1-3.678,3.729-7.813,3.729H192.435c-4.135,0-7.552-1.631-7.808-3.729l-2.87-23.485-.251-2.062-.105-.863-.256-2.068-.1-.858-.251-2.068-.181-1.46c-.146-1.189,1.711-2.188,4.05-2.188H215.1C217.436,765.49,219.292,766.489,219.147,767.678Z" transform="translate(-147.033 -398.78)"/><path class="q" d="M105.439,738.04l-.251,2.063H67.511l-.251-2.062Z" transform="translate(-33.505 -367.677)"/><path class="q" d="M105.436,743.87l-.251,2.068H68.226l-.256-2.068Z" transform="translate(-33.859 -370.582)"/><path class="q" d="M105.433,749.7l-.251,2.062H68.941L68.69,749.7Z" transform="translate(-34.217 -373.486)"/><path class="c" d="M680.819,403.44l13.71.7-22.6,7.116-11.572-.667Z" transform="translate(-328.975 -200.987)"/><path class="r" d="M680.8,402.25l13.71.7-22.6,7.116L660.34,409.4Z" transform="translate(-328.965 -200.394)"/><path class="s" d="M811.61,440.01c.537-.236,1.119.191,1.7.291.331.06.672,0,1,.05.672.08,1.345.5,2.007.286Z" transform="translate(-461.386 -236.599)"/><path class="s" d="M810.21,440.85c.537-.236,1.119.191,1.7.291.331.06.672,0,1,.05.672.08,1.345.5,1.982.281Z" transform="translate(-460.689 -237.017)"/><path class="s" d="M807,442.53c.537-.236,1.119.191,1.7.291.326.06.667,0,1,.05.672.08,1.345.5,2.007.281Z" transform="translate(-459.09 -237.854)"/><path class="h" d="M875.916,432.82s-1.716,7.989,5.917,8.932l.472-.883S876.378,435.3,875.916,432.82Z" transform="translate(-493.34 -233.051)"/><path class="h" d="M887.068,436.814l-1.776.376-.176.035s-4.737-3.844-4.677-12.425a21.189,21.189,0,0,0,2.263,3.578C884.579,430.862,886.712,434.179,887.068,436.814Z" transform="translate(-495.675 -229.056)"/><path class="h" d="M890.654,434.7a1.114,1.114,0,0,1-.953.12c-4.557-1.064-3.011-15.913-3.011-15.913.251.12.527,2.007,1.576,4.446C890.1,427.642,892.119,433.623,890.654,434.7Z" transform="translate(-498.663 -226.122)"/><path class="h" d="M907.248,432.82s.3,7.989-7.337,8.932l-.472-.883S906.747,435.3,907.248,432.82Z" transform="translate(-505.141 -233.051)"/><path class="h" d="M902.634,424.8a14.775,14.775,0,0,1-6.092,12.425l-.181-.035-1.771-.376c.351-2.635,2.509-5.952,4.361-8.436A19.305,19.305,0,0,1,902.634,424.8Z" transform="translate(-502.725 -229.056)"/><path class="h" d="M895.259,433.924a2.881,2.881,0,0,1-1,.778h0a1.934,1.934,0,0,1-.376.12c-1.119.266-1.505-.547-1.445-1.917.105-2.449,1.641-6.689,3.011-9.861a12.309,12.309,0,0,1,2.86-4.135S898.235,430.5,895.259,433.924Z" transform="translate(-501.648 -226.122)"/><path class="h" d="M893.061,408.53s-5.088,18.066-.708,20.77S894.185,410.131,893.061,408.53Z" transform="translate(-500.725 -220.951)"/><path class="c" d="M875.916,432.82s-1.716,7.989,5.917,8.932l.472-.883S876.378,435.3,875.916,432.82Z" transform="translate(-493.34 -233.051)"/><path class="c" d="M887.068,436.814l-1.776.376-.176.035s-4.737-3.844-4.677-12.425a21.189,21.189,0,0,0,2.263,3.578C884.579,430.862,886.712,434.179,887.068,436.814Z" transform="translate(-495.675 -229.056)"/><path class="c" d="M890.654,434.7a1.114,1.114,0,0,1-.953.12c-4.557-1.064-3.011-15.913-3.011-15.913.251.12.527,2.007,1.576,4.446C890.1,427.642,892.119,433.623,890.654,434.7Z" transform="translate(-498.663 -226.122)"/><path class="c" d="M907.248,432.82s.3,7.989-7.337,8.932l-.472-.883S906.747,435.3,907.248,432.82Z" transform="translate(-505.141 -233.051)"/><path class="c" d="M902.634,424.8a14.775,14.775,0,0,1-6.092,12.425l-.181-.035-1.771-.376c.351-2.635,2.509-5.952,4.361-8.436A19.305,19.305,0,0,1,902.634,424.8Z" transform="translate(-502.725 -229.056)"/><path class="c" d="M895.259,433.924a2.881,2.881,0,0,1-1,.778h0a1.934,1.934,0,0,1-.376.12c-1.119.266-1.505-.547-1.445-1.917.105-2.449,1.641-6.689,3.011-9.861a12.309,12.309,0,0,1,2.86-4.135S898.235,430.5,895.259,433.924Z" transform="translate(-501.648 -226.122)"/><path class="c" d="M893.061,408.53s-5.088,18.066-.708,20.77S894.185,410.131,893.061,408.53Z" transform="translate(-500.725 -220.951)"/><path class="h" d="M876.037,432.82s-1,7.989,6.624,8.932l.472-.883S876.5,435.3,876.037,432.82Z" transform="translate(-493.46 -233.051)"/><path class="h" d="M887.776,436.814,886,437.19l-.176.035s-5.445-3.844-5.385-12.425c0,0,1.4,1.505,2.971,3.578C885.287,430.862,887.42,434.179,887.776,436.814Z" transform="translate(-495.675 -229.056)"/><path class="c" d="M890.726,440.366l-1.776.376c-1.681-1.48-2.349-5.334-2.589-8.812C888.237,434.414,890.37,437.731,890.726,440.366Z" transform="translate(-498.625 -232.608)"/><path class="h" d="M891.553,434.7a1.129,1.129,0,0,1-.958.12c-4.557-1.064-3.724-15.913-3.724-15.913a20.509,20.509,0,0,1,2.283,4.446C891,427.642,893.013,433.623,891.553,434.7Z" transform="translate(-498.85 -226.122)"/><path class="h" d="M907.956,432.82s1,7.989-6.624,8.932l-.472-.883S907.454,435.3,907.956,432.82Z" transform="translate(-505.849 -233.051)"/><path class="h" d="M903.337,424.8c.06,8.581-5.385,12.425-5.385,12.425l-.176-.035L896,436.814c.351-2.635,2.509-5.952,4.366-8.436C901.942,426.3,903.337,424.8,903.337,424.8Z" transform="translate(-503.427 -229.056)"/><path class="c" d="M900.366,431.93c-.231,3.242-.823,6.81-2.263,8.481a3.389,3.389,0,0,1-.326.331L896,440.366C896.351,437.731,898.509,434.414,900.366,431.93Z" transform="translate(-503.427 -232.608)"/><path class="h" d="M896.67,433.924a2.82,2.82,0,0,1-1,.778h0a2.007,2.007,0,0,1-.371.12c-1.124.266-1.505-.547-1.45-1.917.11-2.449,1.646-6.689,3.011-9.861a19.41,19.41,0,0,1,2.153-4.135S899.651,430.5,896.67,433.924Z" transform="translate(-502.351 -226.122)"/><path class="c" d="M893.611,439.116a1.279,1.279,0,0,1-.723-.231c-2.143-1.335-2.188-6.348-1.676-11.115C893.054,432.056,895.071,438.037,893.611,439.116Z" transform="translate(-500.908 -230.536)"/><path class="c" d="M896.675,438.029c-.246.532-.577.813-1,.778h0a1.507,1.507,0,0,1-.607-.231,3.288,3.288,0,0,1-1.214-1.566c.11-2.449,1.646-6.689,3.011-9.861C897.353,431.551,897.518,436.223,896.675,438.029Z" transform="translate(-502.356 -230.227)"/><path class="h" d="M893.6,408.53s-4.376,18.066,0,20.77S894.723,410.131,893.6,408.53Z" transform="translate(-501.263 -220.951)"/><path class="b" d="M782.164,416.96l-.306,1.6-1.114,5.856H770.15l-1.114-5.856-.306-1.6Z" transform="translate(-382.962 -207.722)"/><path class="c" d="M782.164,416.96l-.306,1.6H769.036l-.306-1.6Z" transform="translate(-382.962 -207.722)"/><rect class="b" width="18.221" height="3.016" transform="translate(383.224 207.461)"/><path class="l" d="M940.2,499s36.011,22.582,28.132,58.914c-.642,2.966-1.2,5.942-1.566,8.948-1.44,11.773-10.082,45.55-61.694,61.107v3.513l21.895-6.107,14.864-8.195L953.175,607l13.87-16.916,6.438-13.8,2.359-18.176,1.34-20.755-3.317-17.775L966.041,508l-9.535-7.417Z" transform="translate(-507.946 -266.021)"/><path class="k" d="M312.308,581.058a79.3,79.3,0,0,0,8.119,52.972c25.9,46.981,80.939,33.155,97.178,27.826,3.864-1.27,7.778-2.369,11.743-3.267l178.869-40.537c61.558-10.7,74.27-60.555,74.27-60.555,12.189-38.45,3.834-60.851-7.2-73.547a43.543,43.543,0,0,0-35.233-14.723l-21.217,1.124-188.6,20.575C342.076,491.869,318.525,547.988,312.308,581.058Zm17.468,2.263c5.947-28.433,29.271-69.673,104.289-72.217,3.443-.12,6.88-.422,10.3-.878l168.672-22.532,19.531-1a41.8,41.8,0,0,1,36.969,18.321c7.768,11.687,11.968,30.109,2.359,58.748,0,0-11.758,43.518-68.684,52.867L437.994,652.006c-3.759.8-7.472,1.786-11.14,2.921-14.984,4.627-64.81,16.359-89.013-23.044a66.639,66.639,0,0,1-8.064-48.561Z" transform="translate(-211.931 -251.152)"/></g></svg>